<svg width="30" height="31" viewBox="0 0 30 31" fill="none" xmlns="http://www.w3.org/2000/svg">
<path d="M28.1766 7.76704C27.0516 6.12348 25.6477 4.72016 24.0047 3.59516C23.5776 3.30278 22.994 3.41176 22.7016 3.83891C22.4092 4.26606 22.5182 4.84966 22.9454 5.14204C24.3961 6.1352 25.636 7.37505 26.6291 8.82583C26.8108 9.09126 27.1043 9.23364 27.4038 9.23364C27.586 9.23364 27.7706 9.18032 27.9323 9.06958C28.36 8.77719 28.4696 8.19419 28.1766 7.76704Z" fill="white"/>
<path d="M7.05395 5.14181C7.4811 4.84942 7.59067 4.26583 7.2977 3.83868C7.00473 3.41153 6.42172 3.30196 5.99458 3.59493C4.35161 4.71993 2.9477 6.12325 1.8227 7.76681C1.53032 8.19395 1.6393 8.77755 2.06645 9.06993C2.22817 9.18067 2.41274 9.23399 2.59497 9.23399C2.8938 9.23399 3.18794 9.09102 3.36958 8.82618C4.36391 7.37481 5.60317 6.13497 7.05395 5.14181Z" fill="white"/>
<path d="M23.7084 23.5683C25.1739 21.6938 26.0469 19.3349 26.0469 16.7714C26.0469 10.67 21.101 5.72412 14.9997 5.72412C8.89829 5.72412 3.95239 10.67 3.95239 16.7714C3.95239 19.3349 4.82544 21.6944 6.29087 23.5683L3.67114 26.188C3.30493 26.5542 3.30493 27.1478 3.67114 27.514C3.85396 27.6968 4.09419 27.7888 4.33384 27.7888C4.57349 27.7888 4.81372 27.6974 4.99653 27.514L7.56645 24.944C9.52876 26.7306 12.1368 27.8187 14.9991 27.8187C17.8614 27.8187 20.4694 26.73 22.4317 24.944L25.3004 27.8128C25.4833 27.9956 25.7235 28.0876 25.9631 28.0876C26.2028 28.0876 26.443 27.9962 26.6258 27.8128C26.992 27.4466 26.992 26.853 26.6258 26.4868L23.7084 23.5683ZM18.4432 20.2149C18.2604 20.3978 18.0202 20.4897 17.7805 20.4897C17.5409 20.4897 17.3006 20.3983 17.1178 20.2149L14.337 17.4341C14.1612 17.2583 14.0622 17.0198 14.0622 16.7714V11.972C14.0622 11.454 14.4817 11.0345 14.9997 11.0345C15.5176 11.0345 15.9372 11.454 15.9372 11.972V16.3829L18.4432 18.889C18.8094 19.2552 18.8094 19.8487 18.4432 20.2149Z" fill="white"/>
</svg>
